<svg xmlns="http://www.w3.org/2000/svg" width="14.371" height="13.893" viewBox="0 0 14.371 13.893">
  <g id="reshot-icon-chevron-arrow-left-circle-XY6MSRE5DN" transform="translate(14.371) rotate(90)">
    <path id="Path_77" data-name="Path 77" d="M6.947,0A7.069,7.069,0,0,0,0,7.185a7.069,7.069,0,0,0,6.947,7.185,7.069,7.069,0,0,0,6.947-7.185A7.077,7.077,0,0,0,6.947,0Zm0,12.934A5.655,5.655,0,0,1,1.389,7.185,5.655,5.655,0,0,1,6.947,1.437,5.655,5.655,0,0,1,12.5,7.185a5.662,5.662,0,0,1-5.557,5.748Z" transform="translate(0 0)"/>
    <path id="Path_78" data-name="Path 78" d="M3.27,0,0,3.382,3.27,6.764l.982-1.016L1.964,3.382,4.252,1.016Z" transform="translate(4.575 3.803)"/>
  </g>
</svg>
