<svg xmlns="http://www.w3.org/2000/svg" width="149.26" height="143.784" viewBox="0 0 149.26 143.784">
  <g id="Group_69" data-name="Group 69" transform="translate(-1516.87 -192.752)">
    <path id="Path_82" data-name="Path 82" d="M614.69,214.068c0,31.038-20.422,57.483-49.025,67.546a76.066,76.066,0,0,1-13.415,3.392,77.838,77.838,0,0,1-37.478-3.279c-28.785-9.98-49.355-36.515-49.342-67.674,0-39.689,33.414-71.877,74.63-71.877a76.249,76.249,0,0,1,43.423,13.42C602.378,168.636,614.69,189.967,614.69,214.068Z" transform="translate(1051.44 50.576)" fill="#e5e5e5"/>
    <path id="Path_84" data-name="Path 84" d="M541.982,179.048c0,15.919-10.474,29.482-25.144,34.643a39.013,39.013,0,0,1-6.88,1.74,39.922,39.922,0,0,1-19.222-1.682c-14.763-5.119-25.313-18.728-25.306-34.709,0-20.356,17.137-36.864,38.276-36.864a39.107,39.107,0,0,1,22.271,6.883A36.429,36.429,0,0,1,541.982,179.048Z" transform="translate(1087.794 85.596)" fill="#7258ff"/>
  </g>
</svg>
