<svg xmlns="http://www.w3.org/2000/svg" width="220.982" height="212.875" viewBox="0 0 220.982 212.875">
  <defs>
    <style>
      .cls-1 {
        fill: #e5e5e5;
      }

      .cls-2 {
        fill: #0d1b1e;
      }
    </style>
  </defs>
  <g id="Group_68" data-name="Group 68" transform="translate(-1382.009 -304.509)">
    <path id="Path_82" data-name="Path 82" class="cls-1" d="M686.411,248.613c0,45.952-30.234,85.1-72.583,100a112.617,112.617,0,0,1-19.862,5.022,115.24,115.24,0,0,1-55.486-4.854c-42.616-14.775-73.071-54.06-73.051-100.193,0-58.76,49.47-106.415,110.491-106.415a112.887,112.887,0,0,1,64.289,19.868C668.184,181.351,686.411,212.931,686.411,248.613Z" transform="translate(916.579 162.334)"/>
    <path id="Path_84" data-name="Path 84" class="cls-2" d="M578.767,196.765c0,23.568-15.507,43.648-37.226,51.289a57.751,57.751,0,0,1-10.187,2.576,59.105,59.105,0,0,1-28.458-2.49c-21.857-7.578-37.477-27.727-37.466-51.387,0-30.137,25.372-54.578,56.669-54.578a57.9,57.9,0,0,1,32.972,10.19A53.934,53.934,0,0,1,578.767,196.765Z" transform="translate(970.401 214.181)"/>
  </g>
</svg>
